<svg xmlns="http://www.w3.org/2000/svg" width="40" height="24" viewBox="0 0 40 24"><g><g><path fill="#fff" d="M39.786 21.677a2.95 2.95 0 0 0-.136-.273c-.694-1.316-2.02-2.93-3.977-4.843l-.042-.044-.02-.021-.021-.022h-.021c-.889-.891-1.451-1.49-1.687-1.797-.431-.584-.528-1.176-.292-1.775.167-.453.792-1.409 1.874-2.87.57-.774 1.02-1.394 1.354-1.862 2.402-3.36 3.443-5.506 3.123-6.44l-.124-.22c-.083-.131-.298-.251-.645-.36-.347-.11-.791-.128-1.333-.056l-5.997.044c-.097-.036-.236-.033-.417.011l-.27.066-.105.055-.083.066a.942.942 0 0 0-.229.23 1.518 1.518 0 0 0-.207.382 36.55 36.55 0 0 1-2.229 4.93 46.713 46.713 0 0 1-1.416 2.356c-.43.664-.791 1.153-1.083 1.467a7.667 7.667 0 0 1-.791.756c-.236.19-.417.27-.541.241-.125-.029-.243-.058-.355-.088a1.428 1.428 0 0 1-.468-.537 2.5 2.5 0 0 1-.24-.854 9.881 9.881 0 0 1-.072-.887c-.007-.249-.004-.599.01-1.052.014-.452.021-.76.021-.92 0-.555.01-1.158.03-1.808l.053-1.544c.014-.38.02-.782.02-1.205 0-.424-.024-.756-.072-.997a3.543 3.543 0 0 0-.218-.701 1.166 1.166 0 0 0-.427-.526 2.306 2.306 0 0 0-.698-.295c-.735-.176-1.673-.27-2.811-.286-2.582-.028-4.241.147-4.977.526-.292.16-.556.38-.791.657-.25.322-.285.497-.105.526.833.131 1.423.446 1.77.942l.125.263c.098.19.195.526.292 1.008.097.482.16 1.015.187 1.599.07 1.066.07 1.98 0 2.739-.07.76-.135 1.351-.198 1.774-.062.425-.156.767-.28 1.03a4.517 4.517 0 0 1-.25.482.367.367 0 0 1-.105.11c-.18.073-.368.11-.562.11-.195 0-.43-.104-.708-.307a5.117 5.117 0 0 1-.864-.844c-.299-.358-.635-.858-1.01-1.5a26.65 26.65 0 0 1-1.166-2.28l-.333-.635a55.562 55.562 0 0 1-.854-1.785 35.15 35.15 0 0 1-.958-2.268c-.11-.307-.277-.54-.5-.701l-.104-.066c-.07-.059-.18-.12-.333-.186a2.08 2.08 0 0 0-.479-.142l-5.706.043c-.583 0-.978.14-1.187.417l-.083.131c-.042.073-.063.19-.063.35 0 .162.042.358.125.592a73.863 73.863 0 0 0 2.718 5.96c.978 1.913 1.829 3.454 2.55 4.622a54.933 54.933 0 0 0 2.208 3.308c.75 1.037 1.246 1.701 1.489 1.993.243.293.434.512.573.658l.52.526c.333.35.823.77 1.468 1.26.646.489 1.36.971 2.145 1.446.785.475 1.697.861 2.739 1.16 1.04.3 2.054.42 3.04.363h2.395c.485-.044.853-.206 1.103-.483l.083-.11c.056-.087.108-.222.156-.404a2.34 2.34 0 0 0 .073-.603 7.59 7.59 0 0 1 .135-1.698c.104-.503.222-.883.355-1.138.132-.256.281-.472.447-.647.167-.175.285-.281.355-.317.069-.037.124-.062.166-.076.333-.118.725-.005 1.177.339.451.343.874.767 1.27 1.27.396.504.871 1.07 1.426 1.698.556.628 1.042 1.096 1.458 1.402l.416.264c.278.175.64.335 1.084.481.443.146.832.183 1.166.11l5.33-.088c.527 0 .938-.091 1.229-.274.291-.182.465-.383.52-.603a1.78 1.78 0 0 0 .011-.745c-.05-.276-.098-.47-.146-.58z"/></g></g></svg>