<svg xmlns="http://www.w3.org/2000/svg" width="50" height="50" viewBox="0 0 50 50"><defs><clipPath id="nkaea"><path fill="#fff" d="M25 0c13.807 0 25 11.193 25 25S38.807 50 25 50 0 38.807 0 25 11.193 0 25 0z"/></clipPath><clipPath id="nkaeb"><path fill="#fff" d="M30.989 24.817l-.643.73-.173-.156-8.499 7.607-.663-.751 8.411-7.53-7.776-6.986.642-.73z"/></clipPath></defs><g><g><g opacity=".5"><path fill="none" stroke="#f5832e" stroke-miterlimit="20" stroke-width="2" d="M25 0c13.807 0 25 11.193 25 25S38.807 50 25 50 0 38.807 0 25 11.193 0 25 0z" clip-path="url(&quot;#nkaea&quot;)"/></g><g><path fill="none" stroke="#f5832e" stroke-miterlimit="20" stroke-width="2" d="M30.989 24.817l-.643.73-.173-.156-8.499 7.607-.663-.751 8.411-7.53-7.776-6.986.642-.73z" clip-path="url(&quot;#nkaeb&quot;)"/></g></g></g></svg>