<svg xmlns="http://www.w3.org/2000/svg" width="50" height="50" viewBox="0 0 50 50"><defs><clipPath id="c48da"><path fill="#fff" d="M25 0c13.807 0 25 11.193 25 25S38.807 50 25 50 0 38.807 0 25 11.193 0 25 0z"/></clipPath><clipPath id="c48db"><path fill="#fff" d="M27.712 17l.642.731-7.776 6.986 8.41 7.53-.663.751-8.498-7.607-.174.156-.642-.73z"/></clipPath></defs><g><g><g opacity=".5"><path fill="none" stroke="#f5832e" stroke-miterlimit="20" stroke-width="2" d="M25 0c13.807 0 25 11.193 25 25S38.807 50 25 50 0 38.807 0 25 11.193 0 25 0z" clip-path="url(&quot;#c48da&quot;)"/></g><g><path fill="none" stroke="#f5832e" stroke-miterlimit="20" stroke-width="2" d="M27.712 17l.642.731-7.776 6.986 8.41 7.53-.663.751-8.498-7.607-.174.156-.642-.73z" clip-path="url(&quot;#c48db&quot;)"/></g></g></g></svg>