<svg xmlns="http://www.w3.org/2000/svg" width="29" height="22" viewBox="0 0 29 22"><g><g><path fill="#363b53" d="M1.165 21.992V20.54c2.517-1.1 4.345-2.526 5.484-4.275 1.14-1.75 1.71-3.538 1.71-5.364 0-.374-.077-.66-.229-.858-.152-.176-.304-.264-.455-.264-.13 0-.326.077-.586.23-.63.374-1.411.562-2.344.562-1.28 0-2.392-.506-3.336-1.519C.465 8.04-.007 6.852-.007 5.488c0-1.453.542-2.729 1.628-3.83C2.705.558 4.018.008 5.559.008c1.866 0 3.461.732 4.785 2.195 1.323 1.464 1.985 3.472 1.985 6.024 0 3.147-.939 5.942-2.815 8.384-1.877 2.443-4.66 4.236-8.35 5.38zm16.665 0V20.54c2.517-1.1 4.346-2.526 5.485-4.275 1.139-1.75 1.708-3.538 1.708-5.364 0-.374-.076-.66-.227-.858-.152-.176-.304-.264-.456-.264-.13 0-.326.077-.586.23-.63.374-1.41.562-2.343.562-1.281 0-2.393-.506-3.337-1.519-.944-1.012-1.416-2.2-1.416-3.564 0-1.453.543-2.729 1.628-3.83 1.085-1.1 2.397-1.65 3.938-1.65 1.866 0 3.461.732 4.785 2.195 1.323 1.464 1.986 3.472 1.986 6.024 0 3.147-.94 5.942-2.816 8.384-1.877 2.443-4.66 4.236-8.349 5.38z"/></g></g></svg>