<svg xmlns="http://www.w3.org/2000/svg" width="13" height="7" viewBox="0 0 13 7"><g><g><path fill="#fff" d="M11.189 4.45c.43.401.886.778 1.273 1.22.17.195.332.397.456.625.175.323.017.679-.288.698h-1.894c-.488.038-.878-.15-1.206-.467-.262-.255-.505-.525-.757-.788a1.795 1.795 0 0 0-.34-.288c-.26-.16-.484-.11-.632.146-.15.261-.184.55-.199.84-.02.425-.155.537-.603.556-.957.043-1.866-.095-2.71-.554-.744-.405-1.321-.977-1.823-1.625C1.488 3.553.739 2.167.066.743-.086.422.025.25.397.244c.618-.012 1.236-.011 1.854 0 .251.002.418.14.514.365.335.782.744 1.527 1.257 2.216.137.184.276.367.475.496.22.144.387.097.49-.136a1.48 1.48 0 0 0 .11-.466 6.586 6.586 0 0 0-.031-1.628C5.013.753 4.813.533 4.458.469 4.277.437 4.304.373 4.392.274 4.544.105 4.687 0 4.972 0h2.14c.338.064.413.208.459.53l.002 2.263c-.004.125.065.495.302.578.189.058.313-.086.427-.2.512-.517.878-1.129 1.205-1.762.145-.279.27-.568.39-.857.09-.214.23-.32.484-.315l2.06.002c.061 0 .123.001.182.01.348.057.443.198.335.521-.168.506-.497.928-.818 1.352-.344.452-.711.889-1.052 1.344-.313.415-.288.625.1.986z"/></g></g></svg>