<?xml version="1.0" encoding="utf-8"?>
<!-- Generator: Adobe Illustrator 23.1.1, SVG Export Plug-In . SVG Version: 6.00 Build 0)  -->
<svg version="1.1" id="Слой_1" xmlns="http://www.w3.org/2000/svg" xmlns:xlink="http://www.w3.org/1999/xlink" x="0px" y="0px"
	 viewBox="0 0 240 49" style="enable-background:new 0 0 240 49;" xml:space="preserve">
<style type="text/css">
	.st0{fill:#FFFFFF;}
</style>
<path class="st0" d="M145.6,11.9c-4.2-0.9-8.4,4.6-9.8,11.4c-1.3,6.6-2.6,8.3-4.3,9.8c-1,0.9-2.1,0.8-2.6,1c-0.6-2.1-1-4.4-1.3-6.1
	c-0.8-4-1.3-4.5-1.9-4.5c-0.3-0.1-1.1,0.2-1.9,0.5c0.9-0.6,2.2-1.6,3.6-2.5c1.9-1.4,2.7-2.5,3.5-4.1c0.6-1.3,2.7-0.8,2.6-1.1
	c-0.4-1.1-2.5-1.7-4.6-0.6c-1.5,0.8-2.3,2.1-3.3,4.1c-0.9,1.8-1.3,3.6-2.7,4.6c-0.4,0.3-0.8,0.4-0.9,0.6c-0.2,0.3,0.6,1,1,2.6
	c0.5,2.1,0.8,6.3,1.4,8.3c1.2,4.1,3.7,5.2,5.5,5.2c1.8,0,3-0.7,2.8-1.1c-0.3-0.4-1.6-0.7-2.7-2.9c-0.3-0.5-0.5-1.1-0.7-1.8
	c0.6,0.6,1.5,1.1,2.4,1.3c1.3,0.3,3.5,0.5,5.1-3.5c1.4-3.3,0.9-6,2.3-13.2c1.1-5.6,3.8-6.9,5.2-7.2c-0.4,0.4-1,1.4-1.4,2.4
	c-1.7,4.1-2.5,11.8-1.2,18c1.4,7,5.5,7.6,7.8,7.2c0.8-0.2-3.3-6.5-4.1-14.7C144.6,16.9,146.1,12,145.6,11.9z M124.5,11.2
	c-0.3-0.2-2.7-0.6-4.3,1.7c-2.7,3.8-3.8,9.6-3.9,15.8c-0.2,7.1,0.8,13.6,3.2,13.9c0.5,0.1,0.1-2.1,0.9-10.4
	c0.9-8.9,2.5-13.9,3.3-17.4C124.1,12.7,124.7,11.3,124.5,11.2z"/>
<path class="st0" d="M219.1,11.2c-0.3-0.2-2.7-0.6-4.3,1.7c-2.7,3.8-3.8,9.6-3.9,15.8c-0.2,7.1,0.8,13.6,3.2,13.9
	c0.5,0.1,0.1-2.1,0.9-10.4c0.9-8.9,2.5-13.9,3.3-17.4C218.7,12.7,219.3,11.3,219.1,11.2z"/>
<path class="st0" d="M224.6,36.9c-1.1-2.2-1.9-6.3-2.4-9c-0.8-4-1.3-4.5-1.9-4.5c-0.3-0.1-1.1,0.2-1.9,0.5c0.9-0.6,2.2-1.6,3.6-2.5
	c1.9-1.4,2.7-2.5,3.5-4.1c0.6-1.3,2.7-0.8,2.6-1.1c-0.4-1.1-2.5-1.7-4.6-0.6c-1.5,0.8-2.3,2.1-3.3,4.1c-0.9,1.8-1.3,3.6-2.7,4.6
	c-0.4,0.3-0.8,0.4-0.9,0.6c-0.2,0.3,0.6,1,1,2.6c0.5,2.1,0.8,6.3,1.4,8.3c1.2,4.1,3.7,5.2,5.5,5.2c1.8,0,3.1-0.7,2.8-1.1
	C227,39.4,225.7,39.1,224.6,36.9z"/>
<path class="st0" d="M158.9,14.2c-2,0.1-3.8,1.1-5.2,2.6c-1.4,1.4-1.3,3.6-0.8,3.9c0.8,0.5,3.3-1.1,3.7-1.9c0.5-0.7,0.1-4.1,1.8-3.7
	c0.7,0.2,0.1,4.5-0.1,4.8c-0.4,0.5-5.6,5-7.5,8.5c-1.7,3.1-1.9,8.2,0.7,9.2c1.8,0.7,3.6-0.4,4.9-2.1c1.1-1.4,1.7-3.9,1.3-4
	c-0.3-0.2-1.3,2.3-2.4,2.2c-0.7-0.1-1.6-2.6-0.5-6.2c1-3.6,3.4-6.2,3.4-6.2s-0.2,3.6,0.2,7.7c0.5,6,2.6,8.5,3.4,8.4
	c0.4-0.1,0.4-1.1,0.9-3.6c0.5-2.4,1.1-7.6,0.4-13.8C162.4,15.1,160.6,14.2,158.9,14.2z"/>
<path class="st0" d="M239.7,20.1c-0.5-5-2.3-5.9-4-5.8c-2,0.1-3.8,1.1-5.2,2.6c-1.3,1.4-1.3,3.6-0.8,3.9c0.8,0.5,3.3-1.1,3.7-1.9
	c0.5-0.7,0.1-4.1,1.8-3.7c0.7,0.2,0.1,4.5-0.1,4.8c-0.4,0.5-5.6,5-7.5,8.5c-1.7,3.1-1.9,8.2,0.7,9.2c1.8,0.7,3.6-0.4,4.9-2.1
	c1.1-1.4,1.7-3.9,1.3-4c-0.3-0.2-1.3,2.3-2.4,2.2c-0.7-0.1-1.6-2.6-0.5-6.2c1-3.6,3.4-6.2,3.4-6.2s-0.2,3.6,0.2,7.7
	c0.5,6,2.6,8.5,3.4,8.4c0.4-0.1,0.4-1.1,0.9-3.6C239.7,31.5,240.4,26.3,239.7,20.1z"/>
<path class="st0" d="M208.5,16.9c-3.8-0.3-5.2,2.2-5.9,5.2c-0.8,3.5-0.5,7.3-0.5,8.3c0,1-1.3,3.6-2.4,3.5c-2.1-0.2-2.5-6.8-1.8-11.3
	c1.2-8.2,2.9-9.6,2.6-9.8c-2.3-0.6-6.2,4.5-7.7,11.5c-1.3,6.1-0.5,11.6,2.7,13.2c1.8,0.8,3.6-0.1,5.1-1.7c0.7-0.8,1.6-2.2,1.9-3.1
	c0.7,4.4,4.9,6.5,5.5,6.2c0.5-0.3-1-1.8-1.4-6c-0.4-3.4-0.3-7.3,0.7-11.7C208,17.1,209.1,16.9,208.5,16.9z"/>
<path class="st0" d="M54.4,16.9c-3.8-0.3-5.2,2.2-5.9,5.2c-0.8,3.5-0.5,7.3-0.5,8.3c0,1-1.3,3.6-2.4,3.5c-2.1-0.2-2.5-6.8-1.8-11.3
	c1.2-8.2,3-9.6,2.6-9.8c-2.3-0.6-6.2,4.5-7.7,11.5c-1.3,6.1-0.5,11.6,2.7,13.2c1.8,0.8,3.6-0.1,5.1-1.7c0.7-0.8,1.6-2.2,1.9-3.1
	c0.7,4.4,4.9,6.5,5.5,6.2c0.5-0.3-1-1.8-1.4-6c-0.4-3.4-0.3-7.3,0.6-11.7C53.9,17.1,55,16.9,54.4,16.9z"/>
<path class="st0" d="M102.3,13.7c0-0.8-0.2-0.8-0.7-0.7c-0.3,0.1-0.8,0.3-1,0.5c-0.3,0.2-0.8,0.5-1,0.5c-0.3,0-3.6-1.5-5.9-1.2
	c-2.4,0.3-3.5,2.2-3.1,4.4c0.4,2.3,4.2,3.9,4.2,3.9s-2.5-0.7-3.5,3.5c-0.6,2.5-2.2,7.4-3.7,9.4c-0.9,1.2-1.9,1.9-2.6,2.2
	c0.1-0.6,0.2-1.4,0.4-2.5c0.5-2.4,1.1-7.6,0.4-13.8c-0.5-5-2.3-5.9-4-5.8c-2,0.1-3.8,1.1-5.2,2.6c-1.4,1.4-1.3,3.6-0.8,3.9
	c0.8,0.5,3.3-1.1,3.7-1.9c0.5-0.7,0.1-4.1,1.8-3.7c0.7,0.2,0.1,4.5-0.1,4.8c-0.4,0.5-5.6,5-7.5,8.5c-1.7,3.1-1.9,8.2,0.7,9.2
	c1.8,0.7,3.6-0.4,4.9-2.1c1.1-1.4,1.7-3.9,1.3-4c-0.3-0.2-1.3,2.3-2.4,2.2c-0.7-0.1-1.6-2.6-0.5-6.2c1-3.6,3.4-6.2,3.4-6.2
	s-0.2,3.6,0.2,7.7c0.5,5.7,2.4,8.2,3.2,8.4c0.5,0.2,1.4,0.4,2.5,0.4c2.7,0,6.2-2.1,7.3-6.2c1.3-5.1,3.1-9.9,2.4-10.4
	c-0.8-0.6-3.6-3.3-2.3-6c0.7-1.5,4.3-0.6,4.7-0.1c0.1,0.2-0.3,1.4-0.6,2.3c-0.7,2.5-1.1,5.5-0.9,8.7c0.4,7.1,2.5,13.1,4.9,12.9
	c0.8-0.1,0.6-5,0.3-13.3C102.3,17.2,102.3,14.4,102.3,13.7z"/>
<path class="st0" d="M18.7,22.9c-0.8-1.3-1.7-3.1-1.9-5.5c-0.4-3.3,0.1-5.3-1.1-6.2c-1.6-1.3-6.1-0.5-6.4,0.9
	c-0.1,0.5,1.3-0.3,1.8,1.3c0.5,2,1.7,4.7,2.8,6.4c1.1,1.8,2.8,2.7,3.6,3.1c-1.7,0.2-4.3,1.7-5.5,4.3c-1.8,4.1-2.1,7.8-4,10.6
	C5.8,41,3.3,41.4,2,40.7c-1.3-0.7-1.1-1.3-1.8-1.3c-0.7,0.1,0.2,4.6,3.2,6.2c1.7,0.9,6.8,1.9,9.7-4.8c2.8-6.3,2.6-11.4,3.2-14.3
	c0.5-2.6,2.4-3.1,2.5-3.3C18.8,23.2,18.9,23.1,18.7,22.9z M34.5,41.8c-1.2-2.9-1.6-10.2-1.7-13.8c-0.2-6.1-2.2-5.8-2.2-5.8
	s-0.8,0.1-1.7,0.3c1.3-0.7,3.4-2.1,4.2-3.9c1.3-2.8,0.2-6,1.3-5.8c0.9,0.2,1.6,0.9,1.6,2.5c0,1.2-0.6,1.7-0.3,1.9
	c0.3,0.2,3.4-0.1,3.8-2.6c0.4-2-0.5-3.5-1.9-3.9c-2.1-0.7-4.3,0.8-5.6,3.1c-0.9,1.8-1.4,3.5-2,4.8c-0.8,2-1.3,3.4-2.6,4.2
	c-0.2,0.1-0.9,0.4-1,0.6c-0.4,0.5-0.2,9.9,0.9,14.4c1.3,5.6,4.1,9.1,7.4,9c2.2-0.1,3.7-0.5,3.4-1.1C38.1,45.1,35.7,44.8,34.5,41.8z
	 M28.4,1c-2.6,3.6-7.7,14-9.1,24.4C17.7,37,18.4,47.7,21,48.4c0.9,0.3,2-7.9,4.1-21.5c2.1-14.1,3.6-21.3,4.4-24.6
	C30.6-1.4,28.9,0.3,28.4,1z"/>
<path class="st0" d="M69.5,13.2c2.3-4.2,1.2-7.3-1.1-7.6c-2.7-0.3-4.9,1.5-7.1,5.8c-2.2,4.1-3.8,8.4-4.4,14.7
	c-0.7,6.4-0.1,10.2,1.3,12c1,1.4,2.2,2.2,4.8,1.4c3.6-1.1,7.7-5.5,7.9-10.6c0.2-5-2-8.2-3.4-8.6c-1.3-0.5-4.8,1.5-4.5,1.8
	c1.7,1.8,3.3,4.1,3.6,7.4c0.5,5-1.1,8-3.1,8.6c-1.9,0.5-2.3-2.2-1.9-8.7c0.4-6.2,1.2-12.6,2.5-17.5c1.5-5.7,3-5.4,3.7-3.8
	c1.2,2.7-4.2,10.5-4.1,10.7C63.9,19.2,68.1,15.8,69.5,13.2z"/>
<path class="st0" d="M191.4,30.8c-0.5-0.4-3.2,3.5-6,3.5c-0.9,0-2.3-2.6-1.9-8.5c0.1-1.7,0.7-6.1,1.6-8c0.8-1.9,1.2-2.5,2.2-2.4
	c0.8,0,1.2,1.2,1,2.5c-0.1,0.8-0.3,2.1-0.1,2.4c0.2,0.3,2.5-0.6,2.8-2.1c0.5-2.3-1.1-4-3.1-4c-0.5,0-1.3,0-2.5,0.7
	c-2.7,1.6-5.7,5.2-7,10.9c-0.4,1.7-0.6,3.4-0.6,4.9c-1.1,1-2.6,2.1-4.1,2.1c-0.9,0-2.3-2.6-1.9-8.5c0.1-1.7,0.7-6.1,1.6-8
	c0.8-1.9,1.2-2.5,2.2-2.4c0.8,0,1.2,1.2,1,2.5c-0.1,0.8-0.3,2.1-0.1,2.4c0.2,0.3,2.5-0.6,2.8-2.1c0.5-2.3-1.1-4-3.1-4
	c-0.5,0-1.3,0-2.5,0.7c-2.7,1.6-5.7,5.2-7.1,10.9c-1.3,5.7-0.4,11.1,3.4,11.8c3.2,0.5,5.9-1.2,8.1-3.4c0.4,2.7,1.6,4.6,3.8,5
	c3.4,0.6,6.4-1.5,8.6-3.9C191.2,32.4,192,31.2,191.4,30.8z"/>
</svg>
