<svg xmlns="http://www.w3.org/2000/svg" width="13" height="13" viewBox="0 0 13 13"><g><g><path fill="#363b53" d="M12.994 10.26a.629.629 0 0 1-.193.55l-1.83 1.818c-.083.092-.19.17-.324.234a1.328 1.328 0 0 1-.392.124 1.996 1.996 0 0 1-.261.014c-.175 0-.457-.03-.847-.09-.39-.06-.867-.206-1.431-.44-.565-.235-1.204-.586-1.92-1.054-.716-.468-1.477-1.11-2.285-1.928A15.106 15.106 0 0 1 1.915 7.67 12.926 12.926 0 0 1 .897 6.066 8.672 8.672 0 0 1 .319 4.73a7.1 7.1 0 0 1-.262-1.033 3.416 3.416 0 0 1-.055-.682c.01-.165.014-.257.014-.275.018-.128.06-.26.124-.393s.142-.24.234-.323L2.204.192A.607.607 0 0 1 2.644 0a.51.51 0 0 1 .317.103c.092.069.17.154.234.255l1.472 2.795a.67.67 0 0 1 .07.482.857.857 0 0 1-.235.44l-.674.676a.226.226 0 0 0-.048.09.339.339 0 0 0-.02.103c.036.192.118.413.247.66.11.22.28.49.51.806.228.317.554.682.976 1.095.413.422.78.75 1.101.985.321.234.59.406.805.516.216.11.38.177.496.2l.172.034a.343.343 0 0 0 .09-.02.226.226 0 0 0 .089-.049l.784-.799a.842.842 0 0 1 .578-.22c.156 0 .28.028.372.083h.013l2.656 1.57c.193.119.308.27.344.454z"/></g></g></svg>