<svg xmlns="http://www.w3.org/2000/svg" width="40" height="46" viewBox="0 0 40 46"><defs><mask id="btsnb" width="2" height="2" x="-1" y="-1"><path fill="#fff" d="M5 4h30v36H5z"/><path d="M33.38 19.448L9.825 4.355c-.696-.422-1.561-.352-2.214-.352-2.612 0-2.6 2.05-2.6 2.571v30.849c0 .44-.012 2.571 2.6 2.571.653 0 1.518.07 2.214-.352L33.379 24.55c1.934-1.17 1.6-2.55 1.6-2.55s.334-1.382-1.6-2.55z"/></mask><filter id="btsna" width="62" height="69" x="-11" y="-12" filterUnits="userSpaceOnUse"><feOffset dy="1" in="SourceGraphic" result="FeOffset1023Out"/><feGaussianBlur in="FeOffset1023Out" result="FeGaussianBlur1024Out" stdDeviation="2.4 2.4"/></filter></defs><g><g><g filter="url(#btsna)"><path fill="none" d="M33.38 19.448L9.825 4.355c-.696-.422-1.561-.352-2.214-.352-2.612 0-2.6 2.05-2.6 2.571v30.849c0 .44-.012 2.571 2.6 2.571.653 0 1.518.07 2.214-.352L33.379 24.55c1.934-1.17 1.6-2.55 1.6-2.55s.334-1.382-1.6-2.55z" mask="url(&quot;#btsnb&quot;)"/><path fill="#a44800" fill-opacity=".5" d="M33.38 19.448L9.825 4.355c-.696-.422-1.561-.352-2.214-.352-2.612 0-2.6 2.05-2.6 2.571v30.849c0 .44-.012 2.571 2.6 2.571.653 0 1.518.07 2.214-.352L33.379 24.55c1.934-1.17 1.6-2.55 1.6-2.55s.334-1.382-1.6-2.55z"/></g><path fill="#fff" d="M33.38 19.448L9.825 4.355c-.696-.422-1.561-.352-2.214-.352-2.612 0-2.6 2.05-2.6 2.571v30.849c0 .44-.012 2.571 2.6 2.571.653 0 1.518.07 2.214-.352L33.379 24.55c1.934-1.17 1.6-2.55 1.6-2.55s.334-1.382-1.6-2.55z"/></g></g></svg>