<svg xmlns="http://www.w3.org/2000/svg" width="47" height="55" viewBox="0 0 47 55"><defs><mask id="tgkwb" width="2" height="2" x="-1" y="-1"><path fill="#fff" d="M5 4h37v45H5z"/><path d="M12.57 34.275a2.93 2.93 0 0 1-.62-.047V31.83a3.28 3.28 0 0 1 .766-.072c.924 0 1.448.446 1.448 1.193 0 .831-.609 1.324-1.594 1.324zm9.893.085c0 1.939-1.095 2.854-2.774 2.842-.23 0-.486 0-.644-.037v-5.31a3.83 3.83 0 0 1 .839-.072c1.593 0 2.59.891 2.579 2.577zM42 15.335V44.21c0 2.642-2.17 4.79-4.836 4.79H12.258c-2.666 0-4.837-2.148-4.837-4.79v-2.146H6.95a1.94 1.94 0 0 1-1.95-1.93V28.429a1.94 1.94 0 0 1 1.95-1.93h.472V8.79c0-2.639 2.17-4.79 4.837-4.79h18.254zM10.113 38.55h1.836V35.65c.171.023.39.036.633.036 1.095 0 2.031-.265 2.664-.856.487-.457.754-1.132.754-1.927 0-.793-.353-1.469-.876-1.878-.547-.434-1.362-.65-2.505-.65-1.132 0-1.934.072-2.506.168zm28.923 5.659l-.07-27.713-6.208.017c-1.852 0-3.354-1.488-3.354-3.32V6.917l-17.146.017a1.867 1.867 0 0 0-1.873 1.853V26.5h23.218a1.94 1.94 0 0 1 1.949 1.93v11.705a1.94 1.94 0 0 1-1.95 1.93H10.386v2.146c0 1.024.84 1.856 1.873 1.856h24.906a1.865 1.865 0 0 0 1.872-1.856zm-19.748-5.575c1.605 0 2.92-.337 3.782-1.048.792-.661 1.363-1.734 1.363-3.287 0-1.434-.535-2.433-1.386-3.06-.791-.59-1.8-.866-3.358-.866-.936 0-1.824.06-2.505.168v7.972c.462.06 1.143.121 2.104.121zm8.227-4.841v-1.855h3.15v-1.505h-5.011v8.117h1.86v-3.264h2.944v-1.493z"/></mask><filter id="tgkwa" width="69" height="78" x="-11" y="-12" filterUnits="userSpaceOnUse"><feOffset dy="1" in="SourceGraphic" result="FeOffset1023Out"/><feGaussianBlur in="FeOffset1023Out" result="FeGaussianBlur1024Out" stdDeviation="2.4 2.4"/></filter></defs><g><g><g filter="url(#tgkwa)"><path fill="none" d="M12.57 34.275a2.93 2.93 0 0 1-.62-.047V31.83a3.28 3.28 0 0 1 .766-.072c.924 0 1.448.446 1.448 1.193 0 .831-.609 1.324-1.594 1.324zm9.893.085c0 1.939-1.095 2.854-2.774 2.842-.23 0-.486 0-.644-.037v-5.31a3.83 3.83 0 0 1 .839-.072c1.593 0 2.59.891 2.579 2.577zM42 15.335V44.21c0 2.642-2.17 4.79-4.836 4.79H12.258c-2.666 0-4.837-2.148-4.837-4.79v-2.146H6.95a1.94 1.94 0 0 1-1.95-1.93V28.429a1.94 1.94 0 0 1 1.95-1.93h.472V8.79c0-2.639 2.17-4.79 4.837-4.79h18.254zM10.113 38.55h1.836V35.65c.171.023.39.036.633.036 1.095 0 2.031-.265 2.664-.856.487-.457.754-1.132.754-1.927 0-.793-.353-1.469-.876-1.878-.547-.434-1.362-.65-2.505-.65-1.132 0-1.934.072-2.506.168zm28.923 5.659l-.07-27.713-6.208.017c-1.852 0-3.354-1.488-3.354-3.32V6.917l-17.146.017a1.867 1.867 0 0 0-1.873 1.853V26.5h23.218a1.94 1.94 0 0 1 1.949 1.93v11.705a1.94 1.94 0 0 1-1.95 1.93H10.386v2.146c0 1.024.84 1.856 1.873 1.856h24.906a1.865 1.865 0 0 0 1.872-1.856zm-19.748-5.575c1.605 0 2.92-.337 3.782-1.048.792-.661 1.363-1.734 1.363-3.287 0-1.434-.535-2.433-1.386-3.06-.791-.59-1.8-.866-3.358-.866-.936 0-1.824.06-2.505.168v7.972c.462.06 1.143.121 2.104.121zm8.227-4.841v-1.855h3.15v-1.505h-5.011v8.117h1.86v-3.264h2.944v-1.493z" mask="url(&quot;#tgkwb&quot;)"/><path fill="#a44800" fill-opacity=".5" d="M12.57 34.275a2.93 2.93 0 0 1-.62-.047V31.83a3.28 3.28 0 0 1 .766-.072c.924 0 1.448.446 1.448 1.193 0 .831-.609 1.324-1.594 1.324zm9.893.085c0 1.939-1.095 2.854-2.774 2.842-.23 0-.486 0-.644-.037v-5.31a3.83 3.83 0 0 1 .839-.072c1.593 0 2.59.891 2.579 2.577zM42 15.335V44.21c0 2.642-2.17 4.79-4.836 4.79H12.258c-2.666 0-4.837-2.148-4.837-4.79v-2.146H6.95a1.94 1.94 0 0 1-1.95-1.93V28.429a1.94 1.94 0 0 1 1.95-1.93h.472V8.79c0-2.639 2.17-4.79 4.837-4.79h18.254zM10.113 38.55h1.836V35.65c.171.023.39.036.633.036 1.095 0 2.031-.265 2.664-.856.487-.457.754-1.132.754-1.927 0-.793-.353-1.469-.876-1.878-.547-.434-1.362-.65-2.505-.65-1.132 0-1.934.072-2.506.168zm28.923 5.659l-.07-27.713-6.208.017c-1.852 0-3.354-1.488-3.354-3.32V6.917l-17.146.017a1.867 1.867 0 0 0-1.873 1.853V26.5h23.218a1.94 1.94 0 0 1 1.949 1.93v11.705a1.94 1.94 0 0 1-1.95 1.93H10.386v2.146c0 1.024.84 1.856 1.873 1.856h24.906a1.865 1.865 0 0 0 1.872-1.856zm-19.748-5.575c1.605 0 2.92-.337 3.782-1.048.792-.661 1.363-1.734 1.363-3.287 0-1.434-.535-2.433-1.386-3.06-.791-.59-1.8-.866-3.358-.866-.936 0-1.824.06-2.505.168v7.972c.462.06 1.143.121 2.104.121zm8.227-4.841v-1.855h3.15v-1.505h-5.011v8.117h1.86v-3.264h2.944v-1.493z"/></g><path fill="#fff" d="M12.57 34.275a2.93 2.93 0 0 1-.62-.047V31.83a3.28 3.28 0 0 1 .766-.072c.924 0 1.448.446 1.448 1.193 0 .831-.609 1.324-1.594 1.324zm9.893.085c0 1.939-1.095 2.854-2.774 2.842-.23 0-.486 0-.644-.037v-5.31a3.83 3.83 0 0 1 .839-.072c1.593 0 2.59.891 2.579 2.577zM42 15.335V44.21c0 2.642-2.17 4.79-4.836 4.79H12.258c-2.666 0-4.837-2.148-4.837-4.79v-2.146H6.95a1.94 1.94 0 0 1-1.95-1.93V28.429a1.94 1.94 0 0 1 1.95-1.93h.472V8.79c0-2.639 2.17-4.79 4.837-4.79h18.254zM10.113 38.55h1.836V35.65c.171.023.39.036.633.036 1.095 0 2.031-.265 2.664-.856.487-.457.754-1.132.754-1.927 0-.793-.353-1.469-.876-1.878-.547-.434-1.362-.65-2.505-.65-1.132 0-1.934.072-2.506.168zm28.923 5.659l-.07-27.713-6.208.017c-1.852 0-3.354-1.488-3.354-3.32V6.917l-17.146.017a1.867 1.867 0 0 0-1.873 1.853V26.5h23.218a1.94 1.94 0 0 1 1.949 1.93v11.705a1.94 1.94 0 0 1-1.95 1.93H10.386v2.146c0 1.024.84 1.856 1.873 1.856h24.906a1.865 1.865 0 0 0 1.872-1.856zm-19.748-5.575c1.605 0 2.92-.337 3.782-1.048.792-.661 1.363-1.734 1.363-3.287 0-1.434-.535-2.433-1.386-3.06-.791-.59-1.8-.866-3.358-.866-.936 0-1.824.06-2.505.168v7.972c.462.06 1.143.121 2.104.121zm8.227-4.841v-1.855h3.15v-1.505h-5.011v8.117h1.86v-3.264h2.944v-1.493z"/></g></g></svg>