<svg xmlns="http://www.w3.org/2000/svg" width="40" height="46" viewBox="0 0 40 46"><defs><mask id="57xqb" width="2" height="2" x="-1" y="-1"><path fill="#fff" d="M5 4h30v36H5z"/><path d="M33.38 19.448L9.825 4.355c-.696-.422-1.561-.352-2.214-.352-2.612 0-2.6 2.051-2.6 2.57v30.85c0 .439-.012 2.57 2.6 2.57.653 0 1.518.07 2.214-.351l23.553-15.093c1.934-1.17 1.6-2.551 1.6-2.551s.334-1.38-1.6-2.55z"/></mask><filter id="57xqa" width="62" height="69" x="-11" y="-12" filterUnits="userSpaceOnUse"><feOffset dy="1" in="SourceGraphic" result="FeOffset1043Out"/><feGaussianBlur in="FeOffset1043Out" result="FeGaussianBlur1044Out" stdDeviation="2.4 2.4"/></filter></defs><g><g><g filter="url(#57xqa)"><path fill="none" d="M33.38 19.448L9.825 4.355c-.696-.422-1.561-.352-2.214-.352-2.612 0-2.6 2.051-2.6 2.57v30.85c0 .439-.012 2.57 2.6 2.57.653 0 1.518.07 2.214-.351l23.553-15.093c1.934-1.17 1.6-2.551 1.6-2.551s.334-1.38-1.6-2.55z" mask="url(&quot;#57xqb&quot;)"/><path fill="#a44800" fill-opacity=".5" d="M33.38 19.448L9.825 4.355c-.696-.422-1.561-.352-2.214-.352-2.612 0-2.6 2.051-2.6 2.57v30.85c0 .439-.012 2.57 2.6 2.57.653 0 1.518.07 2.214-.351l23.553-15.093c1.934-1.17 1.6-2.551 1.6-2.551s.334-1.38-1.6-2.55z"/></g><path fill="#fff" d="M33.38 19.448L9.825 4.355c-.696-.422-1.561-.352-2.214-.352-2.612 0-2.6 2.051-2.6 2.57v30.85c0 .439-.012 2.57 2.6 2.57.653 0 1.518.07 2.214-.351l23.553-15.093c1.934-1.17 1.6-2.551 1.6-2.551s.334-1.38-1.6-2.55z"/></g></g></svg>